<?xml version="1.0" standalone="no"?>
<!DOCTYPE svg PUBLIC "-//W3C//DTD SVG 20010904//EN"
 "http://www.w3.org/TR/2001/REC-SVG-20010904/DTD/svg10.dtd">
<svg version="1.0" xmlns="http://www.w3.org/2000/svg"
 width="271.000000pt" height="271.000000pt" viewBox="0 0 271.000000 271.000000"
 preserveAspectRatio="xMidYMid meet">
<metadata>
Created by potrace 1.14, written by Peter Selinger 2001-2017
</metadata>
<g transform="translate(0.000000,271.000000) scale(0.100000,-0.100000)"
fill="#000000" stroke="none">
<path d="M599 2436 c-3 -3 -29 -9 -58 -13 -46 -7 -54 -12 -71 -43 -50 -93 -80
-166 -80 -191 0 -15 -9 -56 -20 -91 -21 -67 -27 -173 -10 -183 6 -3 10 -24 10
-45 0 -55 27 -116 61 -141 30 -21 35 -38 20 -67 -5 -9 -18 -38 -28 -65 -12
-32 -27 -51 -45 -60 -16 -6 -28 -15 -28 -19 0 -11 -80 -30 -97 -24 -8 3 -11 1
-8 -4 4 -7 -6 -9 -27 -6 -18 3 -27 3 -20 0 9 -4 0 -20 -29 -51 l-41 -45 7 -66
c4 -37 11 -74 15 -82 9 -16 18 -89 25 -190 4 -67 38 -150 71 -174 13 -10 10
-11 -20 -8 -30 3 -35 1 -30 -11 14 -36 56 -50 179 -58 146 -9 136 -7 361 -80
128 -42 219 -65 310 -79 171 -25 271 -52 352 -94 113 -59 185 -87 235 -93 63
-8 338 15 404 34 28 8 63 23 77 34 28 22 146 166 146 178 0 5 24 33 52 62 60
61 76 105 80 209 2 78 -9 102 -59 125 -50 23 -63 41 -63 89 0 30 -3 37 -10 26
-7 -11 -10 -6 -10 22 0 20 -5 49 -12 63 -9 19 -9 28 0 37 7 7 12 29 12 50 0
21 4 38 9 38 5 0 39 41 76 91 49 64 70 87 76 77 6 -8 9 -2 9 20 0 18 13 57 29
87 25 46 30 51 33 33 2 -13 5 39 6 115 2 155 -12 209 -62 242 -57 37 -95 37
-283 0 -176 -35 -251 -58 -266 -82 -5 -9 -37 5 -115 50 -125 73 -135 77 -267
113 -92 24 -110 26 -225 20 -69 -3 -153 -8 -186 -12 l-62 -7 -71 67 c-38 36
-74 66 -78 66 -5 0 -31 18 -58 41 -76 63 -195 115 -216 95z"/>
<path d="M403 2384 l-28 -25 33 22 c17 13 32 24 32 26 0 8 -11 1 -37 -23z"/>
<path d="M1790 2065 c0 -8 12 -20 26 -26 38 -14 40 -5 5 21 -26 18 -31 19 -31
5z"/>
<path d="M1 1304 c0 -11 3 -14 6 -6 3 7 2 16 -1 19 -3 4 -6 -2 -5 -13z"/>
<path d="M2338 757 c-31 -51 -60 -107 -54 -107 7 0 89 140 85 145 -3 2 -16
-15 -31 -38z"/>
</g>
</svg>
