<?xml version="1.0" standalone="no"?>
<!DOCTYPE svg PUBLIC "-//W3C//DTD SVG 20010904//EN"
 "http://www.w3.org/TR/2001/REC-SVG-20010904/DTD/svg10.dtd">
<svg version="1.0" xmlns="http://www.w3.org/2000/svg"
 width="271.000000pt" height="271.000000pt" viewBox="0 0 271.000000 271.000000"
 preserveAspectRatio="xMidYMid meet">
<metadata>
Created by potrace 1.14, written by Peter Selinger 2001-2017
</metadata>
<g transform="translate(0.000000,271.000000) scale(0.100000,-0.100000)"
fill="#000000" stroke="none">
<path d="M580 2430 c-14 -4 -40 -8 -57 -9 -31 -1 -35 -6 -83 -104 -27 -57 -50
-115 -50 -129 0 -14 -9 -56 -21 -93 -21 -70 -21 -99 -1 -230 11 -73 32 -116
66 -139 27 -17 32 -35 17 -64 -5 -9 -18 -38 -27 -63 -12 -30 -30 -54 -53 -69
-36 -23 -129 -53 -141 -45 -4 3 -29 -18 -55 -46 l-47 -50 7 -67 c4 -37 11 -74
15 -82 8 -16 16 -75 25 -195 4 -62 40 -147 71 -169 13 -10 10 -11 -20 -8 -30
3 -35 1 -30 -11 14 -36 56 -50 179 -58 146 -9 136 -7 361 -80 128 -42 219 -65
310 -79 171 -25 271 -52 352 -94 113 -59 185 -87 235 -93 64 -8 337 15 407 34
45 12 65 26 114 76 32 33 70 79 84 101 15 23 49 66 77 97 56 62 73 109 77 209
2 78 -9 102 -59 125 -50 23 -63 41 -63 89 0 30 -3 37 -10 26 -7 -11 -10 -6
-10 22 0 20 -5 49 -12 63 -9 19 -9 28 0 37 7 7 12 26 12 43 0 20 9 40 24 54
14 13 48 56 77 97 29 41 57 74 61 74 4 0 8 9 8 20 0 12 6 33 14 48 23 44 47
152 53 233 9 123 -30 188 -127 210 -32 7 -76 2 -217 -26 -174 -35 -248 -57
-268 -82 -8 -9 -39 5 -130 57 -100 58 -140 75 -240 101 -113 30 -127 31 -240
25 -66 -3 -148 -8 -181 -12 l-62 -7 -71 67 c-38 36 -74 66 -78 66 -5 0 -31 18
-58 41 -89 74 -179 108 -235 89z m660 -803 c15 -12 33 -31 40 -42 7 -12 -1 -7
-21 11 -19 17 -45 39 -59 49 -16 11 -18 15 -6 11 10 -3 31 -16 46 -29z m-95
-27 c10 -11 16 -20 13 -20 -3 0 -13 9 -23 20 -10 11 -16 20 -13 20 3 0 13 -9
23 -20z m873 -119 c43 -32 59 -51 43 -51 -5 0 -14 7 -19 16 -4 8 -26 26 -48
39 -21 14 -34 25 -28 25 6 0 29 -13 52 -29z m-72 -42 c4 -8 1 -8 -14 0 -12 6
-24 16 -28 22 -4 8 -1 8 14 0 12 -6 24 -16 28 -22z"/>
<path d="M399 2383 c-13 -16 -12 -17 4 -4 9 7 17 15 17 17 0 8 -8 3 -21 -13z"/>
<path d="M2 1295 c0 -16 2 -22 5 -12 2 9 2 23 0 30 -3 6 -5 -1 -5 -18z"/>
<path d="M2338 757 c-31 -51 -60 -107 -54 -107 7 0 89 140 85 145 -3 2 -16
-15 -31 -38z"/>
</g>
</svg>
